<svg xmlns="http://www.w3.org/2000/svg" viewBox="0 0 32 32" width="32" height="32">
  <!-- Green background circle -->
  <circle cx="16" cy="16" r="16" fill="#1b5e20"/>

  <!-- Bird centered and scaled to fit -->
  <g transform="translate(2, 4) scale(0.21)">
    <path d="M 60 80 C 30 55, 5 65, 0 50 C 15 40, 45 42, 65 60 C 75 40, 90 20, 120 15 C 105 35, 95 55, 85 75 C 100 65, 118 60, 130 65 C 115 72, 95 78, 80 90 C 78 100, 72 108, 60 112 C 55 100, 55 90, 60 80 Z"
          fill="#a5d6a7"/>
    <path d="M 65 60 C 75 40, 90 20, 120 15 C 105 35, 95 55, 85 75 C 80 68, 72 63, 65 60 Z"
          fill="#c8e6c9"/>
    <circle cx="58" cy="72" r="10" fill="#81c784"/>
    <circle cx="55" cy="69" r="3" fill="white"/>
    <circle cx="54" cy="69" r="1.5" fill="#1b5e20"/>
    <polygon points="48,70 42,67 48,74" fill="#f9a825"/>
  </g>
</svg>
